<?xml version="1.0" encoding="utf-8"?>
<!DOCTYPE svg PUBLIC "-//W3C//DTD SVG 20010904//EN" "http://www.w3.org/TR/2001/REC-SVG-20010904/DTD/svg10.dtd">
<svg version="1.0" xmlns="http://www.w3.org/2000/svg" width="500px" height="500px" viewBox="0 0 500 500" preserveAspectRatio="xMidYMid meet">
 <g fill="#ffffff">
  <path d="M225.3 472 c-55.8 -5.8 -112.1 -34.5 -149.1 -76 -30 -33.6 -48.7 -72.6 -55.9 -116.5 -2.5 -15.5 -2.5 -51.5 0 -67 9.2 -56.1 38.6 -106.7 82.4 -141.6 26.2 -20.9 60.7 -37.9 91.8 -45.2 44.2 -10.4 89.4 -8.6 131.7 5.3 49.2 16.2 91.9 48.6 121.1 92 14.2 21.1 27.4 53.1 33.3 80.5 2.7 12.6 2.8 14 2.8 42.5 0 28.4 -0.1 30 -2.7 42.5 -9 42.5 -29 80.6 -58.6 111.7 -35.3 37.2 -81.4 61.3 -134.1 70.3 -11.1 1.9 -49.9 2.8 -62.7 1.5z m197.7 -140.5 l0 -23.5 -152 0 -152 0 0 23.5 0 23.5 152 0 152 0 0 -23.5z m-241.2 -43.2 c1.9 -1.7 19 -29.7 70.2 -115.3 28.4 -47.4 31.3 -52.7 30.5 -54 -0.8 -1.3 -47.2 -1.3 -51.1 0 -3.1 1.1 -2.1 -0.6 -35 55 -7 11.8 -17.2 28.9 -22.7 38 -5.5 9.1 -11.8 19.8 -13.9 23.8 l-3.9 7.2 -4.9 0 -4.9 0 -10.4 -16.7 c-5.7 -9.3 -11.6 -18.9 -13.1 -21.6 -1.6 -2.6 -3.8 -5.3 -5 -6 -2.8 -1.6 -50 -1.7 -51.6 -0.1 -1.1 1.1 -0.5 2.3 21.2 37.4 3.5 5.8 8.9 14.3 11.9 19 3 4.7 8.6 13.7 12.4 20 3.7 6.3 7.5 12.3 8.3 13.3 1.4 1.5 4.1 1.7 30.7 1.7 26.5 0 29.5 -0.2 31.3 -1.7z m241.2 -21.3 l0 -23 -86.7 0 c-47.8 0 -87.3 0.4 -88 0.8 -1.1 0.7 -27.3 41.8 -27.3 42.8 0 1.9 15.1 2.3 103.3 2.3 l98.7 0.1 0 -23z m0 -63 l0 -22 -67.5 0 -67.5 0 -2.3 3.8 c-7 11.1 -22.7 38.2 -22.7 39.1 0 0.8 23.4 1.1 80 1.1 l80 0 0 -22z m-287.8 -38 c2.8 0.1 6.2 1.1 9.7 3 3 1.6 5.7 2.8 5.9 2.5 0.2 -0.2 -0.1 -2.7 -0.7 -5.5 -2.2 -10.2 -1.7 -12.1 4.5 -18.3 3 -3 5.2 -5.7 4.7 -6 -0.4 -0.2 -3.9 -0.8 -7.7 -1.2 -3.8 -0.4 -7.5 -0.9 -8.2 -1.2 -0.7 -0.3 -2.8 -3.6 -4.5 -7.4 -1.8 -3.8 -3.5 -6.9 -3.9 -6.9 -0.3 0 -2.1 3.1 -4 7 -1.8 3.8 -3.9 7.1 -4.5 7.4 -0.6 0.2 -4.3 0.7 -8.1 1.1 -3.8 0.4 -7.3 1 -7.7 1.2 -0.5 0.3 1.7 3.2 4.9 6.4 l5.7 5.8 -0.7 6.3 c-0.3 3.5 -0.9 7.6 -1.2 9.1 l-0.7 2.9 6.1 -3.1 c4.1 -2.1 7.6 -3.1 10.4 -3.1z"/>
 </g>
 <g fill="#d22536">
  <path d="M116 331.5 l0 -26.5 155 0 155 0 0 26.5 0 26.5 -155 0 -155 0 0 -26.5z"/>
  <path d="M220.4 292 c-2.6 -1 -3.5 -3 -2.7 -6.1 0.8 -2.7 26 -43.1 27.6 -44.1 0.7 -0.4 41.6 -0.8 91 -0.8 l89.7 0 0 26 0 26 -101.7 -0.1 c-56 0 -102.7 -0.4 -103.9 -0.9z"/>
  <path d="M259.1 227.3 c-0.5 -1 -0.5 -2.6 0 -4.1 0.8 -2.1 17.5 -30.7 23.6 -40.5 l2.3 -3.7 70.5 0 70.5 0 0 25 0 25 -83 0 c-76.9 0 -83 -0.1 -83.9 -1.7z"/>
 </g>
 <g fill="#0d698e">
  <path d="M116.8 291.3 c-0.8 -1 -4.6 -7 -8.3 -13.3 -3.8 -6.3 -9.4 -15.3 -12.4 -20 -3 -4.7 -8.4 -13.2 -11.9 -19 -25.1 -40.7 -24.3 -39.1 -21.8 -42.5 1.4 -1.9 2.7 -2 28.2 -2.2 30.4 -0.2 30.5 -0.2 34.9 7.4 1.6 2.6 7.5 12.3 13.2 21.6 7.5 12 10.9 16.7 12.3 16.7 1.3 0 3.1 -2.2 5.8 -7.2 2.1 -4 8.4 -14.7 13.9 -23.8 5.5 -9.1 15.7 -26.2 22.7 -38 32.9 -55.6 31.9 -53.9 35 -55 3.1 -1.1 54.3 -1.4 57 -0.4 2.6 1 1.8 5.3 -2.4 13 -4 7.3 -33.6 57 -73.9 123.9 -12.3 20.4 -23.2 37.8 -24.3 38.8 -1.8 1.5 -5 1.7 -34.3 1.7 -29.4 0 -32.3 -0.2 -33.7 -1.7z"/>
  <path d="M114.4 176.8 c0.3 -1.2 1.3 -6.3 2.1 -11.2 l1.6 -8.9 -8 -8.1 c-4.5 -4.5 -8.1 -8.4 -8.1 -8.7 0 -0.4 4.4 -1.2 9.8 -1.8 5.3 -0.7 10.4 -1.4 11.2 -1.7 0.9 -0.2 3.8 -4.9 6.5 -10.4 2.7 -5.5 5.2 -10 5.5 -10 0.4 0 2.8 4.5 5.5 10 3.4 7.2 5.3 10.2 6.9 10.5 1.1 0.3 5.9 1 10.6 1.6 4.7 0.6 8.9 1.4 9.3 1.8 0.4 0.4 -1.8 3.2 -5 6.2 -3.2 3 -6.8 6.6 -8.1 8.1 l-2.2 2.6 1.9 10.9 c1 5.9 1.8 10.9 1.6 11.1 -0.1 0.1 -4.7 -2.2 -10.3 -5 l-10.1 -5.3 -9.8 5 c-5.4 2.7 -10.2 5.1 -10.6 5.3 -0.4 0.2 -0.6 -0.7 -0.3 -2z"/>
 </g>
 <g fill="#4272c0">
  <path d="M374.5 410.1 l2.5 -5.1 -3 -6 c-3.4 -6.8 -3.5 -7 -1.6 -7 0.8 0 2.2 2 3.2 4.5 0.9 2.5 2 4.5 2.4 4.5 0.5 0 1.6 -2 2.7 -4.5 1 -2.5 2.4 -4.5 3.1 -4.5 0.6 0 1.2 0.1 1.2 0.3 0 0.1 -2.2 5.2 -4.8 11.2 -3.2 7.1 -5.5 11.1 -6.6 11.3 -1.5 0.3 -1.4 -0.3 0.9 -4.7z"/>
  <path d="M119.2 405.4 c-1.2 -0.8 -2.2 -1.9 -2.2 -2.5 0 -1.5 2.7 -1 3.4 0.6 0.7 2 7.9 2 9.6 0 2.2 -2.6 0.7 -4.9 -4.5 -6.8 -8.5 -3.1 -10.6 -6.6 -6.5 -10.7 3.4 -3.4 13 -2 13 1.9 0 1.6 -1.5 1.4 -3 -0.4 -1.4 -1.6 -5.7 -2 -7.8 -0.6 -0.8 0.4 -1.2 1.9 -1 3.2 0.2 1.9 1.4 2.7 5.7 4.1 6.3 2 6.7 2.4 7.6 5.8 0.9 3.9 -2.5 7 -7.8 7 -2.3 0 -5.3 -0.7 -6.5 -1.6z"/>
  <path d="M138.1 404.4 c-2.7 -3.4 -2.7 -6.4 0 -9.8 2.2 -2.8 5.6 -3.4 9 -1.6 1.3 0.7 1.9 0.7 1.9 0 0 -0.5 0.5 -1 1 -1 0.6 0 1 3.2 1 7.5 0 4.3 -0.4 7.5 -1 7.5 -0.5 0 -1 -0.5 -1 -1 0 -0.7 -0.6 -0.7 -1.9 0 -3.4 1.8 -6.8 1.2 -9 -1.6z m8.9 -1.4 c1.1 -1.1 2 -2.7 2 -3.5 0 -1.8 -3.5 -5.5 -5.3 -5.5 -4.3 0 -6.8 5.9 -3.8 8.9 2.6 2.6 4.6 2.6 7.1 0.1z"/>
  <path d="M156 399.5 c0 -7.4 0.5 -8.6 2.7 -6.4 0.8 0.8 1.3 0.8 1.7 0 1.2 -1.9 5.4 -1.2 7 1.1 1.8 2.5 2.2 12.8 0.6 12.8 -0.5 0 -1 -1.8 -1 -3.9 0 -4.9 -1.5 -9.1 -3.3 -9.1 -2.7 0 -4.7 3.6 -4.7 8.3 0 3.5 -0.4 4.7 -1.5 4.7 -1.2 0 -1.5 -1.5 -1.5 -7.5z"/>
  <path d="M180.4 405.3 c0.2 -1 1.4 -6.2 2.6 -11.6 1.2 -5.5 2.5 -9.5 2.9 -9 0.4 0.4 2.1 4.3 3.7 8.6 1.6 4.2 3.1 7.7 3.4 7.7 0.3 0 2.1 -4.2 4 -9.2 3.3 -9.1 3.4 -9.2 4.1 -5.8 0.4 1.9 1.7 7.4 2.7 12.3 1.5 6.7 1.7 8.7 0.7 8.7 -0.8 0 -1.7 -2.5 -2.5 -6.3 -1.8 -9.6 -2.4 -9.7 -5.6 -1.3 -1.6 4.2 -3.2 7.6 -3.5 7.6 -0.4 0 -1.9 -3.4 -3.4 -7.5 -1.5 -4.1 -3.1 -7.3 -3.5 -7 -0.3 0.2 -1.3 3.6 -2 7.5 -0.9 4.7 -1.8 7 -2.7 7 -0.9 0 -1.2 -0.7 -0.9 -1.7z"/>
  <path d="M210 405 c-2.8 -2.8 -2.6 -8.1 0.3 -10.8 2.6 -2.4 6.6 -2.9 8.6 -0.9 1.1 1 1.4 1 1.8 0 1.2 -3.4 2.3 -0.5 2.3 6.2 0 4.3 -0.4 7.5 -1 7.5 -0.5 0 -1 -0.5 -1 -1 0 -0.7 -0.6 -0.7 -1.9 0 -3.1 1.6 -6.9 1.2 -9.1 -1z m8.2 -1.2 c3.1 -2.4 2.3 -8.2 -1.2 -9.3 -4.8 -1.5 -8.8 4.8 -5.5 8.5 2.1 2.3 4.4 2.5 6.7 0.8z"/>
  <path d="M230 400.9 c0 -5.2 -0.3 -6.2 -2 -6.6 -1.1 -0.3 -2 -0.9 -2 -1.4 0 -0.5 0.9 -0.9 2 -0.9 1.6 0 2 -0.7 2 -3 0 -1.6 0.5 -3 1 -3 0.6 0 1 1.4 1 3 0 2.3 0.4 3 2 3 1.1 0 2 0.5 2 1 0 0.6 -0.9 1 -2 1 -1.8 0 -2 0.7 -2 6.5 0 3.7 -0.4 6.5 -1 6.5 -0.6 0 -1 -2.7 -1 -6.1z"/>
  <path d="M240.2 404.7 c-4.6 -4.9 -1.2 -12.7 5.4 -12.7 3.3 0 7.4 3.5 7.4 6.3 0 1.4 -1 1.7 -6 1.7 -4.7 0 -6 0.3 -6 1.5 0 2.4 4.7 4.2 7.1 2.7 3 -1.9 4.4 -1.4 2.4 0.8 -2.5 2.8 -7.6 2.6 -10.3 -0.3z m9.8 -7.7 c0 -1.9 -4.1 -3.3 -6.6 -2.1 -3.8 1.7 -2.8 3.1 2.1 3.1 2.5 0 4.5 -0.4 4.5 -1z"/>
  <path d="M258.9 405.1 c-5.2 -4.2 -1.7 -13.1 5.1 -13.1 4.4 0 7.4 3.1 7.4 7.5 0 4.4 -3 7.5 -7.4 7.5 -1.5 0 -3.8 -0.8 -5.1 -1.9z m8.3 -1.8 c2.2 -2 2.3 -5.1 0.1 -7.5 -2 -2.2 -4.1 -2.3 -6.5 -0.1 -2.2 2 -2.3 5.1 -0.1 7.5 2 2.2 4.1 2.3 6.5 0.1z"/>
  <path d="M287.4 403.6 c-2.9 -2.9 -3.4 -4.1 -3.4 -8.1 0 -4 0.5 -5.2 3.4 -8.1 4.6 -4.6 10.1 -4.8 14.8 -0.5 1.8 1.6 3 3.3 2.5 3.7 -0.4 0.4 -1.7 -0.2 -3 -1.3 -4.9 -4.5 -11.5 -3.6 -14.3 2 -3.1 5.9 0.1 12.3 6.8 13.3 2.7 0.5 4 0.1 6.6 -2.1 3.4 -2.8 4.7 -2.9 3.7 -0.3 -0.9 2.3 -6 4.8 -10 4.8 -2.9 0 -4.5 -0.8 -7.1 -3.4z"/>
  <path d="M310.9 405.1 c-5.2 -4.2 -1.7 -13.1 5.1 -13.1 4.4 0 7.4 3.1 7.4 7.5 0 4.4 -3 7.5 -7.4 7.5 -1.5 0 -3.8 -0.8 -5.1 -1.9z m8.3 -1.8 c2.2 -2 2.3 -5.1 0.1 -7.5 -2 -2.2 -4.1 -2.3 -6.5 -0.1 -2.2 2 -2.3 5.1 -0.1 7.5 2 2.2 4.1 2.3 6.5 0.1z"/>
  <path d="M329.2 405.8 c-1.5 -1.5 -1.6 -13.8 -0.2 -13.8 0.6 0 1 2.2 1 4.9 0 6.1 0.7 8.1 3 8.1 3 0 5 -3.3 5 -8.3 0 -2.6 0.5 -4.7 1 -4.7 0.6 0 1 3.2 1 7.5 0 4.3 -0.4 7.5 -1 7.5 -0.5 0 -1 -0.5 -1 -1.2 0 -0.9 -0.3 -0.9 -1.2 0 -0.7 0.7 -2.4 1.2 -3.8 1.2 -1.4 0 -3.1 -0.5 -3.8 -1.2z"/>
  <path d="M345 399.5 c0 -4.3 0.4 -7.5 1 -7.5 0.6 0 1 0.5 1 1 0 0.7 0.6 0.7 1.9 0 3 -1.6 5.9 -1.2 7.1 0.9 1.3 2.5 1.3 13.1 0 13.1 -0.5 0 -1 -2.4 -1 -5.4 0 -5.7 -1.5 -8.1 -4.4 -7 -2.4 0.9 -3.6 3.7 -3.6 8.3 0 2.3 -0.4 4.1 -1 4.1 -0.6 0 -1 -3.2 -1 -7.5z"/>
  <path d="M364 400.5 c0 -5.8 -0.2 -6.5 -2 -6.5 -1.1 0 -2 -0.4 -2 -1 0 -0.5 0.9 -1 2 -1 1.6 0 2 -0.7 2 -3 0 -1.6 0.5 -3 1 -3 0.6 0 1 1.4 1 3 0 2.3 0.4 3 2 3 1.1 0 2 0.5 2 1 0 0.6 -0.9 1 -2 1 -1.8 0 -2 0.7 -2 6.5 0 3.7 -0.4 6.5 -1 6.5 -0.6 0 -1 -2.8 -1 -6.5z"/>
  <path d="M185.8 80.8 c-6.8 -16 -7.4 -17.9 -5.6 -17.6 1.7 0.2 3.2 2.8 7 11.8 2.6 6.3 5.1 12.4 5.6 13.4 0.7 1.6 2 -0.9 6.6 -11.7 4.5 -10.6 6.3 -13.7 7.7 -13.7 1.5 0 1.7 0.4 1 2.2 -1.3 3.4 -14.2 33.2 -14.4 33.4 -0.1 0.1 -3.7 -7.9 -7.9 -17.8z"/>
  <path d="M306.8 97.2 c-4.2 -0.5 -8.8 -6.4 -8.8 -11.2 0 -3.3 1.1 -5.2 7.7 -13.4 5.9 -7.4 8.2 -9.6 10.1 -9.6 2.3 0 2.2 0.3 -2.2 5.4 -2.5 3 -4.6 5.7 -4.6 6 0 0.3 1.1 0.6 2.5 0.6 1.4 0 3.9 1.3 5.7 2.9 2.9 2.6 3.3 3.5 3.3 8 0 4.1 -0.5 5.5 -2.5 7.6 -2.8 2.8 -7.1 4.2 -11.2 3.7z m7.6 -5.3 c5.4 -4.3 2.2 -13.3 -4.8 -13.3 -7.4 0 -10.7 8.3 -5.1 13.2 3.3 2.8 6.5 2.8 9.9 0.1z"/>
  <path d="M217.2 95.4 c-2.9 -2 -5.2 -6.6 -5.2 -10.3 0 -3.9 5 -9.7 9 -10.6 7.3 -1.6 14 3.9 14 11.5 0 3.4 -0.6 4.8 -3.4 7.6 -2.8 2.8 -4.1 3.4 -7.8 3.4 -2.4 0 -5.4 -0.7 -6.6 -1.6z m12 -4.4 c2.5 -2.6 2.9 -3.6 2.4 -6.3 -0.8 -4 -3.9 -6.7 -7.9 -6.7 -7 0 -10.3 8.5 -5.2 13.5 3.3 3.4 7 3.2 10.7 -0.5z"/>
  <path d="M244 87.5 c0 -9.5 0 -9.5 -2.5 -9.5 -1.6 0 -2.5 -0.6 -2.5 -1.5 0 -0.9 0.9 -1.5 2.5 -1.5 2.3 0 2.5 -0.4 2.5 -4.5 0 -3.8 0.3 -4.5 2 -4.5 1.7 0 2 0.7 2 4.5 0 4.1 0.2 4.5 2.5 4.5 1.6 0 2.5 0.6 2.5 1.5 0 0.9 -0.9 1.5 -2.5 1.5 -2.5 0 -2.5 0 -2.5 9.5 0 8.8 -0.1 9.5 -2 9.5 -1.9 0 -2 -0.7 -2 -9.5z"/>
  <path d="M260.5 93.9 c-3.1 -2.7 -3.5 -3.7 -3.5 -7.9 0 -5.5 2.3 -9 6.9 -11 6.4 -2.6 14.3 1.8 15.7 8.8 l0.7 3.2 -9.7 0 c-10.6 0 -12 1 -6.9 5 3 2.4 7.4 2.2 10.3 -0.5 2.1 -1.9 4 -1.9 4 0 0 2.3 -6 5.5 -10.2 5.5 -2.7 0 -4.7 -0.8 -7.3 -3.1z m14.9 -11.1 c-2.8 -5 -7.8 -6.3 -12.2 -3.2 -4.4 3.1 -2.8 4.4 5.4 4.4 5.7 0 7.3 -0.3 6.8 -1.2z"/>
  <path d="M289.8 81.8 c-0.3 -15 -0.3 -15.3 -2.5 -15.6 -2.7 -0.4 -3.1 -3.2 -0.5 -3.2 0.9 0 2.7 -0.3 4 -0.6 l2.2 -0.6 0 17.6 c0 14.8 -0.2 17.6 -1.5 17.6 -1.2 0 -1.5 -2.6 -1.7 -15.2z"/>
 </g>
</svg>